<svg class="svg-icon" style="width: 1em; height: 1em;vertical-align: middle;fill: currentColor;overflow: hidden;" viewBox="0 0 1024 1024" version="1.1" xmlns="http://www.w3.org/2000/svg"><path d="M512 12C236.31 12 12 236.3 12 512s224.31 500 500 500 500-224.3 500-500S787.69 12 512 12z m0 944.44C266.94 956.44 67.56 757.06 67.56 512S266.94 67.56 512 67.56 956.44 266.94 956.44 512 757.06 956.44 512 956.44z"  /><path d="M770.14 307.17L419.42 657.91 253.86 492.37a27.77 27.77 0 0 0-39.28 39.28l185.2 185.18a27.77 27.77 0 0 0 39.28 0l370.36-370.38a27.77 27.77 0 0 0-39.28-39.28z"  /></svg>